<svg xmlns="http://www.w3.org/2000/svg" viewBox="0 0 1000 145">
    <path fill="#2e2c47" d="M1000 144.238V77.051S890.29 41.613 834.375 46.58c-70.313 6.25-168.102 61.728-256.25 67.97-91.93 6.508-214.586-30.602-295.313-28.907-64.335 1.352-141.93 34.243-189.062 39.063C62.477 127.902 0 114.551 0 114.551v29.687h1000Z"/>
    <path fill="#2e2c47" fill-opacity=".64" d="M1000 144.239V49.707S890.29 14.27 834.375 19.238c-70.313 6.25-168.102 61.727-256.25 67.97-91.93 6.507-214.586-30.602-295.313-28.907-64.335 1.352-141.93 34.242-189.062 39.063C62.477 100.559 0 87.207 0 87.207v57.032h1000Z"/>
    <path fill="#2e2c47" fill-opacity=".64" d="M1000 144.242V32.202S890.29-3.235 834.375 1.734c-70.313 6.25-168.102 61.726-256.25 67.969-91.93 6.507-214.586-30.602-295.313-28.907C218.477 42.148 140.882 75.04 93.75 79.86 62.477 83.054 0 69.703 0 69.703v74.539h1000Z"/>
</svg>
