<svg xmlns="http://www.w3.org/2000/svg" viewBox="0 0 1000 140">
    <path fill="#35334b" d="M1000 139.335V62.698S890.29 33.457 834.375 37.557c-70.313 5.157-168.102 50.934-256.25 56.085-91.93 5.37-214.586-25.251-295.313-23.852-64.335 1.115-141.93 28.255-189.062 32.232C62.477 104.66 0 93.642 0 93.642v45.693h1000Z"/>
    <path fill="#35334b" fill-opacity=".64" d="M1000 139.335V40.136S890.29 10.895 834.375 14.995c-70.313 5.157-168.102 50.934-256.25 56.084-91.93 5.37-214.586-25.25-295.313-23.852-64.335 1.115-141.93 28.255-189.062 32.233C62.477 82.097 0 71.08 0 71.08v68.255h1000Z"/>
    <path fill="#35334b" fill-opacity=".64" d="M1000 139.338V25.692S890.29-3.55 834.375.55c-70.313 5.158-168.102 50.934-256.25 56.085-91.93 5.37-214.586-25.25-295.313-23.852-64.335 1.115-141.93 28.255-189.062 32.233C62.477 67.652 0 56.636 0 56.636v82.702h1000Z"/>
</svg>
