<svg width="100%" height="100%" viewBox="0 0 1000 145" version="1.1" xmlns="http://www.w3.org/2000/svg">
    <g transform="matrix(0.78125,0,0,1.49474,-2.72848e-12,-404.201)">
        <g transform="matrix(1,0,0,0.522668,-1765,-231.542)">
            <path d="M3045,1145L3045,1059C3045,1059 2904.57,1013.64 2833,1020C2743,1028 2617.83,1099.01 2505,1107C2387.33,1115.33 2230.33,1067.83 2127,1070C2044.65,1071.73 1945.33,1113.83 1885,1120C1844.97,1124.09 1765,1107 1765,1107L1765,1145L3045,1145Z" style="fill:rgb(46,44,71);"/>
        </g>
        <g transform="matrix(1,0,0,0.522668,-1765,-249.835)">
            <path d="M3045,1180L3045,1059C3045,1059 2904.57,1013.64 2833,1020C2743,1028 2617.83,1099.01 2505,1107C2387.33,1115.33 2230.33,1067.83 2127,1070C2044.65,1071.73 1945.33,1113.83 1885,1120C1844.97,1124.09 1765,1107 1765,1107L1765,1180L3045,1180Z" style="fill:rgb(46,44,71);fill-opacity:0.64;"/>
        </g>
        <g transform="matrix(1,0,0,0.522668,-1765,-261.546)">
            <path d="M3045,1202.41L3045,1059C3045,1059 2904.57,1013.64 2833,1020C2743,1028 2617.83,1099.01 2505,1107C2387.33,1115.33 2230.33,1067.83 2127,1070C2044.65,1071.73 1945.33,1113.83 1885,1120C1844.97,1124.09 1765,1107 1765,1107L1765,1202.41L3045,1202.41Z" style="fill:rgb(46,44,71);fill-opacity:0.64;"/>
        </g>
    </g>
</svg>
