<svg viewBox="0 0 1000 140" version="1.1" xmlns="http://www.w3.org/2000/svg">
    <g transform="matrix(0.78125,0,0,1.23339,-8.18545e-12,-334.408)">
        <g transform="matrix(1,0,0,0.522668,-1765,-231.542)">
            <path d="M3045,1177.88L3045,1059C3045,1059 2904.57,1013.64 2833,1020C2743,1028 2617.83,1099.01 2505,1107C2387.33,1115.33 2230.33,1067.83 2127,1070C2044.65,1071.73 1945.33,1113.83 1885,1120C1844.97,1124.09 1765,1107 1765,1107L1765,1177.88L3045,1177.88Z" style="fill:rgb(53,51,75);"/>
        </g>
        <g transform="matrix(1,0,0,0.522668,-1765,-249.835)">
            <path d="M3045,1212.88L3045,1059C3045,1059 2904.57,1013.64 2833,1020C2743,1028 2617.83,1099.01 2505,1107C2387.33,1115.33 2230.33,1067.83 2127,1070C2044.65,1071.73 1945.33,1113.83 1885,1120C1844.97,1124.09 1765,1107 1765,1107L1765,1212.88L3045,1212.88Z" style="fill:rgb(53,51,75);fill-opacity:0.64;"/>
        </g>
        <g transform="matrix(1,0,0,0.522668,-1765,-261.546)">
            <path d="M3045,1235.29L3045,1059C3045,1059 2904.57,1013.64 2833,1020C2743,1028 2617.83,1099.01 2505,1107C2387.33,1115.33 2230.33,1067.83 2127,1070C2044.65,1071.73 1945.33,1113.83 1885,1120C1844.97,1124.09 1765,1107 1765,1107L1765,1235.29L3045,1235.29Z" style="fill:rgb(53,51,75);fill-opacity:0.64;"/>
        </g>
    </g>
</svg>
